<?xml version="1.0" standalone="no"?>
<!DOCTYPE svg PUBLIC "-//W3C//DTD SVG 20010904//EN"
 "http://www.w3.org/TR/2001/REC-SVG-20010904/DTD/svg10.dtd">
<svg version="1.0" xmlns="http://www.w3.org/2000/svg"
 width="260.000000pt" height="260.000000pt" viewBox="0 0 260.000000 260.000000"
 preserveAspectRatio="xMidYMid meet">
<metadata>
Created by potrace 1.14, written by Peter Selinger 2001-2017
</metadata>
<g transform="translate(0.000000,260.000000) scale(0.100000,-0.100000)"
fill="#000000" stroke="none">
<path d="M625 2485 c4 -17 0 -20 -35 -20 -25 0 -39 4 -36 11 2 6 -2 11 -9 11
-7 0 -11 -5 -9 -11 2 -6 -7 -11 -20 -11 -17 0 -21 3 -15 11 7 9 3 12 -15 10
-13 0 -22 -4 -19 -8 2 -5 -1 -8 -6 -8 -6 0 -11 4 -11 9 0 5 -11 8 -24 7 -18
-1 -23 -6 -21 -23 1 -13 -3 -19 -10 -17 -6 3 -17 -2 -24 -10 -7 -8 -19 -12
-28 -9 -8 3 -19 0 -24 -8 -7 -12 -12 -12 -31 -1 -21 12 -21 11 2 -9 23 -21 24
-22 4 -17 -12 3 -28 2 -35 -3 -10 -6 -11 -9 -1 -9 14 0 16 -26 2 -35 -6 -4 -7
1 -3 12 7 19 5 18 -17 -11 -8 -11 -10 -17 -3 -13 6 4 14 3 18 -3 3 -5 2 -10
-2 -10 -16 0 -34 -38 -21 -46 6 -4 8 -3 5 3 -4 6 1 17 11 24 15 13 16 12 3 -3
-7 -10 -10 -18 -5 -18 5 0 -2 -10 -16 -21 -17 -14 -21 -22 -12 -26 6 -2 12
-12 12 -21 0 -13 -2 -14 -9 -3 -6 9 -8 5 -8 -13 0 -20 2 -24 12 -16 10 8 15 8
21 -1 4 -8 3 -9 -4 -5 -8 5 -12 -1 -12 -14 0 -14 4 -19 13 -14 9 6 9 5 0 -7
-6 -8 -11 -18 -11 -22 0 -5 -3 -11 -6 -14 -3 -3 -3 4 -1 17 3 18 2 20 -11 10
-10 -9 -11 -16 -4 -25 5 -6 6 -15 2 -19 -4 -5 1 -6 10 -4 9 1 16 -1 15 -7 -1
-5 -10 -10 -19 -10 -28 -2 -34 -15 -7 -15 19 0 21 -2 9 -10 -8 -5 -11 -12 -7
-16 4 -4 -1 -13 -11 -21 -9 -8 -11 -12 -4 -8 6 3 12 1 12 -5 0 -6 5 -8 10 -5
5 3 10 1 10 -5 0 -7 -9 -9 -22 -5 -18 5 -20 4 -8 -4 13 -10 13 -12 0 -22 -12
-8 -10 -9 9 -4 17 5 22 4 19 -6 -3 -8 -12 -13 -20 -11 -8 1 -15 -5 -15 -13 0
-11 7 -14 21 -9 15 4 17 3 7 -4 -11 -8 -11 -11 0 -16 8 -3 3 -4 -11 -1 -14 3
-19 2 -12 -1 19 -9 14 -27 -5 -20 -16 6 -16 5 0 -8 12 -9 15 -16 7 -21 -8 -5
-7 -11 2 -23 10 -12 10 -14 1 -8 -7 4 -13 3 -13 -3 0 -5 6 -12 12 -14 10 -4
10 -6 1 -6 -7 -1 -13 -10 -13 -22 0 -16 4 -20 17 -15 16 5 16 4 3 -6 -22 -19
-48 -53 -32 -44 7 4 12 2 12 -8 0 -8 -5 -16 -12 -18 -8 -3 -6 -6 4 -10 13 -5
15 0 14 23 -1 17 1 32 5 34 3 3 5 -12 4 -33 -4 -53 -4 -54 -17 -47 -7 4 -4 -1
6 -9 17 -14 17 -16 4 -16 -22 0 -29 -13 -16 -30 8 -13 9 -13 5 1 -3 9 0 16 7
16 13 0 15 -25 3 -44 -4 -6 -1 -14 5 -16 10 -4 9 -6 -1 -6 -11 -1 -11 -4 -1
-16 11 -13 10 -14 -4 -9 -10 4 -15 13 -12 20 3 8 1 14 -4 14 -6 0 -10 -9 -10
-19 0 -11 -5 -23 -11 -26 -7 -5 -5 -13 5 -24 9 -10 13 -21 9 -26 -5 -4 -2 -5
4 -1 17 9 16 2 -3 -37 l-15 -32 21 25 20 25 -9 -26 c-5 -15 -7 -30 -3 -34 3
-3 -1 -3 -10 0 -19 7 -34 -10 -17 -21 8 -4 7 -9 -2 -15 -12 -8 -12 -10 0 -18
8 -5 12 -15 9 -22 -8 -22 -9 -29 0 -29 4 0 7 4 7 9 0 5 3 12 6 15 3 4 5 -6 3
-21 -1 -16 -3 -28 -4 -28 -2 0 -4 -18 -9 -75 -1 -13 -2 -13 -11 0 -5 8 -10 11
-10 6 0 -5 8 -19 17 -30 14 -17 15 -18 2 -8 -14 10 -17 9 -22 -8 -3 -12 0 -23
6 -26 14 -5 19 -64 6 -64 -4 0 -6 9 -4 20 2 11 0 22 -4 24 -4 3 -7 -31 -6 -74
2 -44 -1 -78 -4 -76 -4 3 -7 -4 -7 -15 0 -22 11 -25 20 -6 3 6 3 1 0 -12 -5
-17 -3 -21 6 -16 8 5 11 4 6 -3 -4 -6 -14 -8 -24 -5 -9 3 -14 3 -10 -2 4 -4 2
-15 -5 -24 -11 -14 -10 -14 5 -2 20 15 25 2 6 -17 -7 -7 -8 -12 -2 -12 5 0 15
5 22 12 8 8 12 8 12 1 0 -6 -7 -13 -15 -17 -15 -5 -22 -28 -8 -24 5 2 8 -1 8
-7 0 -5 -3 -9 -7 -7 -5 1 -8 -3 -8 -9 0 -5 -5 -7 -12 -3 -7 4 -8 3 -4 -5 4 -6
13 -8 19 -4 7 4 5 -2 -3 -12 -11 -14 -12 -17 -1 -11 9 6 12 4 9 -5 -3 -8 -10
-14 -16 -14 -5 0 -14 -4 -19 -8 -4 -5 -3 -8 2 -7 30 6 38 -1 19 -16 -10 -8
-14 -13 -9 -10 6 2 11 -9 12 -27 1 -18 4 -51 6 -75 3 -29 -1 -46 -11 -55 -13
-10 -14 -9 -7 3 6 12 5 13 -5 3 -10 -9 -10 -15 2 -26 16 -17 13 -81 -4 -71
-11 7 3 -21 25 -48 16 -21 32 -24 21 -5 -4 7 -3 9 2 4 5 -5 10 -17 10 -28 3
-37 4 -40 14 -34 5 3 10 2 10 -4 0 -6 8 -8 18 -5 14 5 14 4 2 -4 -8 -6 -17 -9
-21 -6 -4 2 -10 0 -13 -5 -4 -5 5 -8 19 -6 23 2 30 -6 25 -30 -1 -5 4 -4 11 2
15 15 33 17 24 4 -3 -5 0 -13 6 -17 8 -4 9 -3 5 4 -4 7 -2 12 3 12 6 0 11 -4
11 -8 0 -12 54 -10 63 2 5 6 6 1 2 -11 -5 -19 -3 -21 21 -17 15 3 32 8 37 11
6 4 8 0 4 -10 -3 -9 -1 -19 5 -23 7 -5 8 -2 3 6 -6 10 -4 12 9 7 10 -4 15 -3
11 3 -3 6 1 13 9 16 9 3 14 9 12 13 -2 3 7 7 20 7 13 1 24 -3 24 -9 0 -6 3 -7
6 -4 9 9 -25 59 -36 52 -4 -3 -16 2 -24 11 -12 11 -16 12 -16 2 0 -10 -3 -10
-9 2 -6 8 -8 17 -6 20 2 4 -2 7 -10 7 -8 0 -12 -4 -9 -9 3 -4 0 -8 -5 -8 -6 0
-11 15 -12 33 0 31 -1 31 -10 8 -7 -18 -13 -21 -21 -13 -8 8 -8 15 1 25 9 12
8 16 -4 21 -8 3 -22 3 -30 0 -8 -4 -15 -1 -15 6 0 6 5 8 10 5 6 -3 10 -1 10 4
0 6 -7 11 -16 11 -9 0 -12 5 -8 13 6 9 4 10 -7 0 -7 -7 -18 -13 -24 -13 -5 0
-3 5 5 10 13 9 13 10 0 11 -8 1 -18 1 -22 0 -3 0 -5 7 -3 17 1 11 10 16 26 15
l24 -3 -25 15 c-14 8 -19 15 -12 16 6 1 17 2 22 3 12 1 14 15 4 24 -4 4 -4 1
1 -7 5 -10 4 -12 -4 -7 -16 10 -4 26 15 19 14 -5 15 -3 4 18 -13 23 -12 23 5
9 17 -14 18 -13 12 4 -6 16 -5 17 7 7 11 -9 16 -9 22 0 5 8 3 9 -6 4 -8 -5
-11 -3 -8 6 3 8 12 13 21 13 9 -1 13 4 10 12 -3 8 -9 14 -15 14 -5 0 -6 5 -3
11 5 6 12 4 21 -8 12 -16 13 -15 10 12 -2 17 -1 24 1 18 2 -7 8 -13 13 -13 13
0 18 38 6 50 -6 7 2 4 18 -6 29 -18 29 -18 18 2 -8 16 -8 24 1 33 7 7 13 16
13 21 1 6 2 12 3 15 0 3 10 1 21 -5 16 -9 18 -8 14 5 -4 9 -3 15 2 14 5 -1 16
-1 24 0 12 1 12 3 -2 12 -10 5 -15 16 -11 25 5 12 7 12 20 -3 8 -10 11 -12 7
-4 -5 11 -3 13 9 8 9 -3 19 -1 23 5 4 6 3 8 -3 5 -6 -4 -19 1 -29 9 -10 9 -14
13 -7 9 7 -3 24 -3 38 1 20 5 23 9 13 15 -7 5 -8 9 -3 9 13 -1 45 -25 45 -35
0 -4 -6 -2 -14 4 -10 8 -16 9 -21 1 -4 -6 -1 -9 7 -8 7 2 12 -3 10 -10 -1 -6
1 -11 5 -10 5 1 18 -3 29 -10 12 -6 25 -8 29 -4 4 4 3 -3 -3 -14 -12 -22 -7
-34 12 -34 6 0 4 5 -4 10 -13 8 -12 10 3 10 14 0 22 -16 19 -41 -1 -4 8 -5 18
-2 16 4 20 0 20 -18 l1 -24 15 25 c14 23 14 23 9 3 -4 -14 -2 -23 5 -23 6 0 8
-5 4 -12 -5 -8 0 -7 11 2 16 14 17 13 11 -7 -7 -22 6 -26 33 -9 10 6 12 5 7
-3 -4 -6 0 -14 9 -17 12 -5 13 -9 4 -20 -10 -12 -8 -13 6 -8 12 5 16 4 12 -3
-5 -7 0 -9 13 -6 11 3 17 10 13 17 -4 6 1 5 11 -3 9 -8 15 -20 12 -26 -2 -7 0
-18 6 -26 8 -11 9 -11 5 2 -4 13 1 16 27 16 19 -1 33 -6 33 -14 0 -9 -4 -10
-13 -2 -14 11 -38 3 -30 -10 6 -10 37 -8 54 3 9 6 12 3 10 -9 -3 -18 28 -30
37 -15 3 5 -4 7 -16 5 -12 -2 -19 -1 -15 2 4 4 15 8 26 10 14 2 20 -3 20 -17
0 -23 10 -26 28 -8 7 7 12 8 12 4 0 -5 8 -2 17 5 16 13 17 12 4 -3 -7 -10 -18
-15 -25 -11 -7 4 -6 1 1 -9 7 -8 9 -19 5 -23 -4 -5 -1 -5 6 -1 7 4 10 11 8 15
-3 4 5 13 17 21 20 12 21 12 8 -3 -9 -12 -10 -17 -2 -17 7 0 9 -5 5 -13 -6 -8
-3 -8 9 1 9 8 22 10 28 6 8 -5 9 -3 5 5 -5 7 -15 10 -23 7 -8 -3 -11 -2 -8 3
6 11 52 8 63 -4 4 -4 2 -5 -4 -2 -6 3 -11 0 -11 -7 0 -10 8 -9 31 5 35 22 46
23 46 8 0 -5 -4 -8 -8 -5 -4 2 -14 1 -22 -5 -8 -5 -10 -9 -5 -10 6 0 19 -2 30
-4 24 -5 46 12 39 30 -7 17 12 29 22 14 4 -8 3 -9 -4 -5 -7 4 -12 2 -12 -3 0
-6 9 -11 20 -11 11 0 22 0 25 0 3 0 5 3 4 8 -1 4 -5 6 -11 4 -5 -1 -7 2 -3 8
3 6 17 8 30 6 19 -3 22 -1 18 11 -4 10 -2 14 5 9 6 -3 14 -1 18 5 4 8 3 9 -4
5 -7 -4 -12 -2 -12 3 0 6 5 11 11 11 5 0 8 4 5 9 -4 5 6 14 21 19 16 6 22 11
16 11 -7 1 -13 6 -13 12 0 6 6 9 14 6 11 -4 13 1 10 19 -3 18 -1 23 7 18 8 -4
9 -3 5 5 -4 6 -12 8 -18 5 -6 -4 -8 -2 -4 4 3 5 0 13 -6 16 -7 3 -2 3 12 0 24
-5 24 -4 6 10 -11 9 -14 16 -8 16 7 0 12 5 12 11 0 5 -5 7 -12 3 -6 -4 -8 -3
-4 4 3 5 0 13 -6 15 -9 4 -8 6 2 6 9 1 20 -2 26 -6 5 -5 -1 3 -14 15 -22 23
-23 25 -6 50 l17 27 -22 -19 c-11 -11 -24 -16 -28 -13 -3 4 -1 7 6 7 7 0 9 5
6 10 -3 6 0 10 7 11 7 1 2 5 -12 9 -16 5 -19 8 -8 9 9 1 19 5 22 9 3 4 -8 7
-25 6 -29 -2 -40 10 -16 19 9 4 9 6 -1 6 -7 1 -10 5 -7 11 3 5 -5 15 -19 22
-14 6 -26 18 -26 27 0 14 2 14 10 1 5 -8 10 -10 10 -4 0 16 -10 23 -26 17 -8
-3 -11 -10 -7 -16 3 -6 1 -7 -6 -3 -6 4 -9 11 -7 15 3 4 -4 18 -15 29 -11 12
-16 22 -12 22 4 0 -3 7 -15 16 -12 8 -26 13 -31 9 -5 -3 -13 0 -17 6 -4 7 -3
9 2 6 6 -3 10 4 11 16 0 12 -1 16 -4 10 -7 -19 -33 -16 -33 3 0 11 -5 14 -16
10 -12 -5 -14 -1 -9 17 6 18 5 20 -6 10 -7 -7 -18 -13 -23 -13 -6 0 -4 5 4 10
10 7 11 10 3 11 -23 3 -28 4 -41 12 -7 5 -10 13 -6 18 15 25 -50 64 -76 46 -8
-6 -12 -7 -8 -3 4 5 3 15 -4 23 -8 11 -7 12 5 8 8 -4 17 -3 20 2 3 5 -5 10
-19 11 -13 1 -24 -3 -24 -10 0 -6 -3 -9 -6 -5 -3 3 -2 12 2 19 14 23 12 34 -7
36 -11 1 -28 3 -40 4 -19 2 -20 3 -2 16 17 13 16 14 -4 7 -25 -7 -30 4 -11 23
7 7 8 12 4 12 -5 0 -15 -8 -23 -17 -8 -10 -12 -12 -8 -5 3 6 -1 15 -10 18 -9
4 -14 13 -10 22 4 12 3 12 -8 3 -16 -12 -28 -2 -40 32 -4 10 -12 15 -17 12 -6
-4 -9 -1 -8 7 2 7 -3 12 -10 10 -8 -1 -11 2 -7 9 5 7 17 1 36 -17 15 -15 26
-31 23 -35 -2 -4 0 -10 5 -14 6 -3 8 4 6 17 -3 12 -12 26 -20 31 -8 4 -13 13
-9 18 3 5 0 8 -8 7 -7 -2 -12 5 -12 15 2 17 1 17 -17 1 -19 -17 -20 -17 -13 1
6 14 4 16 -7 11 -8 -4 -6 -1 3 6 15 13 15 15 -5 28 -20 12 -21 12 -8 -3 7 -10
9 -17 3 -17 -18 0 -21 29 -4 40 14 8 12 9 -9 4 -16 -3 -30 -1 -34 7 -5 7 -4
10 2 6 12 -8 26 20 17 34 -3 5 -10 7 -15 4 -5 -4 -9 1 -9 9 0 15 -13 21 -35
16 -5 -1 -7 2 -3 6 4 4 2 14 -5 22 -8 11 -8 14 0 9 18 -11 22 15 7 44 -7 15
-10 30 -6 34 4 5 -1 5 -10 2 -15 -5 -16 -2 -7 20 7 19 6 30 -4 42 -17 20 -30
54 -18 47 5 -3 12 2 15 11 4 10 4 14 0 10 -12 -11 -34 26 -23 39 5 7 9 16 8
20 -4 23 2 45 11 39 6 -4 7 1 3 11 -5 13 -3 15 7 9 9 -5 11 -4 6 4 -6 8 -11 9
-21 1 -9 -8 -11 -5 -7 15 2 14 9 25 14 25 5 0 6 -5 2 -12 -4 -7 -3 -8 5 -4 9
6 9 11 0 22 -6 7 -16 11 -22 7 -6 -3 -7 -1 -3 5 4 6 13 9 21 5 11 -4 13 -1 8
13 -4 11 -3 15 5 10 6 -3 13 -2 16 3 7 11 -13 9 -31 -2 -9 -6 -11 -3 -7 7 3 9
16 16 28 17 17 0 18 2 4 7 -12 5 -15 11 -8 22 5 9 5 19 -1 26 -7 8 -6 15 2 20
7 4 9 3 6 -3 -7 -11 22 -28 31 -18 3 3 1 5 -5 5 -6 0 -13 11 -15 25 -4 16 -1
22 6 17 16 -10 37 -11 31 -2 -3 5 0 10 7 12 7 3 5 7 -6 11 -10 4 -15 3 -11 -3
3 -6 1 -10 -4 -10 -16 0 -13 12 8 38 20 23 38 31 25 10 -5 -7 -3 -8 5 -4 7 5
10 11 7 14 -3 3 -1 11 5 19 6 7 8 13 3 13 -5 0 -2 5 6 10 10 6 11 10 3 10 -7
0 -13 4 -13 10 0 5 8 6 18 3 15 -6 16 -5 2 12 -9 11 -10 16 -3 11 7 -4 23 -9
35 -11 23 -4 23 -4 -2 15 -18 15 -20 18 -6 13 15 -5 17 -3 12 8 -4 8 0 5 10
-6 15 -18 16 -18 10 -1 -5 14 -2 17 9 12 17 -6 19 -1 6 23 -7 13 -6 18 4 18 8
0 12 -4 9 -8 -2 -4 1 -11 8 -15 7 -4 10 -4 6 1 -4 4 -3 14 2 20 7 9 3 17 -14
29 -14 9 -30 16 -35 16 -6 0 -14 7 -19 16 -8 15 -10 15 -15 0 -4 -10 -3 -15 3
-11 6 3 10 1 10 -4 0 -6 -7 -11 -15 -11 -8 0 -15 5 -15 11 0 5 -5 7 -10 4 -6
-4 -7 -11 -4 -17 4 -7 2 -8 -5 -4 -6 4 -9 11 -6 16 3 5 0 12 -6 16 -8 5 -9 3
-4 -6 6 -10 3 -12 -13 -8 -12 4 -20 2 -17 -2 3 -5 -9 -6 -26 -3 -23 3 -29 1
-24 -8 5 -8 4 -10 -4 -5 -6 4 -9 11 -7 15 3 4 1 13 -5 21 -7 12 -9 9 -9 -10
-1 -25 -1 -24 -15 5 -8 17 -13 21 -10 10z m-190 -15 c-3 -5 -12 -10 -18 -10
-7 0 -6 4 3 10 19 12 23 12 15 0z m430 -30 c3 -5 1 -10 -4 -10 -6 0 -11 5 -11
10 0 6 2 10 4 10 3 0 8 -4 11 -10z m-25 -40 c8 -5 11 -10 5 -10 -5 0 -17 5
-25 10 -8 5 -10 10 -5 10 6 0 17 -5 25 -10z m-75 -109 c3 -5 2 -12 -3 -15 -5
-3 -9 1 -9 9 0 17 3 19 12 6z m-100 -531 c-6 -9 -9 -9 -16 1 -10 17 0 34 13
21 6 -6 7 -16 3 -22z m25 -85 c11 -13 10 -14 -4 -9 -9 3 -16 10 -16 15 0 13 6
11 20 -6z m60 -107 c0 -11 -12 -10 -30 2 -12 7 -10 9 8 7 12 0 22 -5 22 -9z
m-554 -91 c2 -14 -1 -15 -17 -6 -11 5 -17 15 -13 20 9 14 27 6 30 -14z m-11
-135 c-3 -3 -11 0 -18 7 -9 10 -8 11 6 5 10 -3 15 -9 12 -12z m5 -22 c0 -5 -4
-10 -10 -10 -5 0 -10 5 -10 10 0 6 5 10 10 10 6 0 10 -4 10 -10z m815 -58 c-3
-3 -11 0 -18 7 -9 10 -8 11 6 5 10 -3 15 -9 12 -12z m95 -77 c9 -10 9 -15 1
-15 -6 0 -11 5 -11 11 0 6 -9 9 -20 6 -11 -3 -18 -1 -14 4 8 14 30 11 44 -6z
m174 -153 c3 -5 -1 -9 -9 -9 -8 0 -12 4 -9 9 3 4 7 8 9 8 2 0 6 -4 9 -8z
m-1097 -27 c0 -6 -6 -12 -12 -12 -6 0 -12 6 -12 12 0 6 6 12 12 12 6 0 12 -6
12 -12z m467 -201 c3 -8 2 -12 -4 -9 -6 3 -10 10 -10 16 0 14 7 11 14 -7z
m810 -152 c3 -5 -1 -9 -9 -9 -8 0 -12 4 -9 9 3 4 7 8 9 8 2 0 6 -4 9 -8z m-24
-32 c0 -5 -5 -10 -11 -10 -5 0 -7 5 -4 10 3 6 8 10 11 10 2 0 4 -4 4 -10z
m-140 -125 c0 -8 -4 -15 -10 -15 -5 0 -7 7 -4 15 4 8 8 15 10 15 2 0 4 -7 4
-15z m-1137 -99 c4 -10 1 -13 -9 -9 -15 6 -19 23 -5 23 5 0 11 -7 14 -14z
m341 -137 c-3 -5 -10 -7 -15 -3 -5 3 -7 10 -3 15 3 5 10 7 15 3 5 -3 7 -10 3
-15z"/>
<path d="M368 2457 c-7 -8 -19 -12 -26 -9 -17 5 -15 -5 2 -11 8 -3 22 3 32 14
19 21 13 26 -8 6z"/>
<path d="M877 2459 c7 -7 15 -10 18 -7 3 3 -2 9 -12 12 -14 6 -15 5 -6 -5z"/>
<path d="M2075 2410 c-3 -5 -4 -14 0 -19 3 -5 1 -12 -5 -16 -5 -3 -10 -1 -10
4 0 6 -8 11 -17 11 -15 0 -16 -2 -3 -10 14 -9 7 -14 -15 -11 -5 1 2 -10 17
-23 15 -13 24 -26 22 -29 -3 -3 3 -4 13 -3 10 0 20 4 23 7 3 4 12 0 20 -9 13
-14 12 -15 -3 -9 -9 3 -17 2 -17 -3 0 -6 11 -10 25 -10 14 0 28 -1 33 -2 13
-2 30 -33 24 -43 -3 -5 5 -1 18 10 13 11 20 14 16 7 -4 -7 -2 -19 4 -27 10
-12 10 -15 0 -15 -8 0 -11 -3 -8 -6 4 -3 16 -1 27 6 17 8 21 8 19 -2 -2 -7
-10 -16 -18 -20 -12 -5 -12 -7 2 -7 9 -1 22 7 27 17 8 14 11 14 12 2 1 -8 1
-21 0 -27 -1 -8 5 -10 16 -6 16 6 17 5 3 -12 -8 -10 -10 -17 -5 -14 6 3 20 -5
32 -18 19 -20 20 -23 5 -24 -9 -1 -21 -1 -25 0 -4 1 -3 -8 3 -19 8 -16 8 -20
-2 -18 -7 2 -12 -4 -10 -14 2 -12 -2 -16 -13 -12 -10 4 -15 0 -15 -11 0 -9 4
-14 9 -10 5 3 13 1 16 -5 4 -6 3 -10 -2 -9 -19 3 -34 -2 -29 -10 3 -5 -1 -12
-9 -15 -13 -5 -14 -2 -4 15 6 11 8 23 5 27 -3 3 -6 0 -6 -7 0 -7 -4 -9 -10 -6
-6 4 -7 -1 -3 -11 5 -12 3 -15 -6 -9 -11 6 -11 3 0 -16 11 -22 11 -23 -4 -11
-14 12 -15 9 -12 -22 3 -31 1 -34 -12 -21 -18 18 -24 19 -18 3 3 -7 -8 -22
-24 -33 -35 -23 -34 -32 1 -14 23 12 23 12 4 -9 -10 -12 -22 -19 -27 -17 -4 3
-11 0 -15 -6 -4 -7 -3 -9 4 -5 6 3 13 2 17 -4 3 -6 -3 -10 -16 -10 -18 0 -19
-2 -9 -15 11 -13 10 -14 -3 -10 -8 4 -18 1 -22 -4 -3 -6 -11 -9 -16 -5 -5 3
-8 0 -7 -8 2 -7 -5 -12 -15 -12 -13 1 -15 -2 -8 -10 7 -8 4 -12 -10 -12 -11 0
-18 5 -15 13 3 6 -3 15 -14 18 -10 3 -24 13 -32 22 -12 15 -11 15 10 4 12 -6
22 -8 22 -2 0 5 -7 12 -16 15 -9 3 -12 11 -8 18 5 9 2 8 -9 -1 -15 -12 -17
-12 -10 4 5 15 3 17 -11 12 -14 -6 -17 -3 -12 9 5 12 2 15 -9 10 -9 -3 -18 1
-22 9 -3 10 -13 14 -27 10 -13 -4 -17 -3 -9 2 10 7 10 13 -2 29 -10 12 -14 14
-12 4 2 -8 2 -12 0 -7 -3 4 -9 5 -14 2 -5 -4 -6 1 -3 9 3 9 11 16 17 16 17 0
2 10 -23 15 -12 2 -28 12 -36 22 -7 10 -14 13 -14 6 0 -6 5 -15 10 -18 13 -8
13 -25 -1 -25 -5 0 -7 5 -4 10 3 6 2 10 -3 10 -5 0 -14 10 -21 23 -6 12 -9 14
-7 5 3 -10 1 -18 -4 -18 -9 0 -14 14 -11 33 0 4 -3 7 -9 7 -5 0 -10 -8 -10
-17 0 -15 -2 -16 -9 -3 -6 8 -8 17 -5 21 2 4 -4 6 -13 5 -10 0 -18 4 -18 11 0
6 -3 15 -7 19 -4 3 -6 -3 -3 -14 5 -28 -9 -36 -26 -15 -10 12 -10 14 -1 9 6
-4 12 -2 12 3 0 17 -18 13 -30 -6 -8 -15 -9 -12 -6 12 5 27 4 28 -9 12 -10
-14 -18 -16 -32 -10 -10 5 -31 8 -47 7 -24 -3 -27 0 -23 19 6 21 6 21 -8 3 -8
-11 -15 -16 -15 -12 0 5 -7 3 -15 -4 -8 -7 -12 -17 -8 -23 3 -6 1 -7 -6 -3 -6
4 -9 11 -6 16 3 4 -4 10 -16 13 -17 5 -18 3 -7 -10 11 -14 11 -15 -7 -6 -21
11 -48 7 -40 -7 6 -10 -15 -27 -40 -32 -11 -2 -20 -8 -20 -15 0 -6 -3 -15 -7
-19 -5 -4 -8 -2 -8 4 0 7 -5 12 -12 12 -6 0 -8 -3 -5 -7 4 -3 2 -12 -5 -20 -9
-11 -7 -12 8 -7 18 5 18 5 1 -6 -9 -6 -15 -15 -12 -20 3 -4 -4 -6 -15 -3 -12
3 -20 0 -20 -6 0 -7 4 -10 9 -6 5 3 13 0 17 -7 4 -7 4 -10 -1 -6 -12 11 -35
-11 -29 -27 3 -7 1 -16 -5 -20 -6 -3 -11 -11 -11 -18 0 -6 7 -2 15 9 13 18 14
16 8 -17 -4 -30 -2 -37 14 -41 21 -6 27 -38 9 -50 -6 -4 0 -8 14 -8 20 0 22
-2 10 -10 -12 -8 -11 -10 6 -10 12 0 28 -8 35 -17 10 -11 10 -14 2 -9 -8 4
-13 1 -13 -9 0 -9 5 -13 10 -10 6 3 10 1 10 -5 0 -6 5 -8 12 -4 8 5 9 2 4 -11
-5 -15 -4 -16 9 -5 9 7 15 9 14 4 -4 -21 2 -35 11 -29 9 6 14 -11 13 -43 -1
-9 5 -8 20 5 11 10 18 13 14 8 -3 -6 -2 -17 3 -25 7 -12 11 -12 27 0 10 8 15
10 11 6 -4 -5 4 -20 18 -33 14 -12 22 -23 18 -23 -4 0 -17 9 -29 20 -15 14
-24 16 -35 9 -13 -9 -12 -10 2 -6 17 6 43 -15 32 -25 -3 -4 9 -5 26 -4 17 1
33 -1 36 -6 3 -5 9 -6 13 -4 4 3 8 -1 8 -9 0 -13 -3 -13 -17 0 -14 13 -17 13
-17 0 0 -8 4 -12 9 -9 4 3 11 -2 14 -11 5 -11 10 -13 19 -5 9 7 16 6 24 -4 10
-11 9 -16 -5 -24 -11 -6 -13 -11 -5 -16 6 -4 11 -2 11 3 0 21 19 11 29 -16 8
-19 10 -21 7 -6 -3 15 0 20 10 16 7 -3 12 -10 11 -16 -1 -7 7 -10 18 -9 11 2
17 1 13 -3 -4 -4 -1 -14 7 -21 18 -19 26 -18 19 4 -5 13 -4 14 4 3 6 -8 8 -20
5 -27 -2 -6 1 -15 8 -20 7 -4 10 -3 6 3 -4 6 1 17 10 24 14 12 16 12 8 -1 -14
-23 -13 -49 2 -43 7 3 10 10 6 16 -3 6 -1 7 5 3 9 -5 9 -13 2 -27 -6 -10 -9
-19 -8 -20 20 -5 46 -10 56 -11 7 -1 10 -8 7 -16 -4 -12 -2 -12 8 -4 19 16 30
3 14 -16 -10 -13 -8 -14 11 -8 16 5 22 4 20 -6 -2 -7 2 -12 8 -11 6 1 11 -5
11 -13 0 -12 -3 -12 -18 2 -13 12 -19 12 -25 3 -4 -7 -3 -10 4 -5 6 3 15 -1
20 -10 6 -10 16 -15 26 -11 9 3 15 3 15 -1 -4 -22 2 -32 14 -26 8 5 7 2 -2 -9
-8 -10 -11 -20 -7 -24 3 -3 6 -1 6 6 0 9 4 8 15 -3 17 -16 20 -30 5 -21 -6 3
-7 -1 -4 -10 6 -14 8 -14 21 2 8 10 12 12 8 6 -3 -7 -1 -21 4 -30 7 -13 10
-14 11 -4 0 8 3 11 6 8 4 -4 1 -13 -5 -21 -9 -11 -9 -16 0 -22 8 -4 9 -3 5 4
-5 8 -2 10 9 6 12 -5 13 -9 4 -20 -8 -10 -8 -14 -1 -14 7 0 9 -7 5 -17 -5 -12
-3 -14 7 -8 10 6 12 4 7 -8 -3 -10 -2 -17 2 -17 5 0 12 6 14 13 3 6 4 0 3 -16
-2 -15 -6 -30 -11 -35 -4 -4 -5 -1 0 7 5 10 4 12 -4 7 -6 -4 -9 -12 -5 -17 3
-5 10 -6 16 -3 6 4 9 1 6 -7 -3 -8 -1 -24 3 -37 5 -13 5 -21 1 -18 -5 3 -9 -1
-9 -9 0 -8 4 -15 9 -15 5 0 4 -9 -2 -21 -7 -11 -9 -23 -6 -27 3 -3 6 0 6 7 0
9 3 9 13 0 16 -15 20 -49 6 -49 -6 0 -8 4 -4 9 3 5 1 12 -3 15 -5 3 -8 -17 -7
-44 1 -27 -1 -47 -6 -44 -5 3 -9 1 -9 -4 0 -6 7 -13 16 -16 8 -3 12 -2 9 3 -3
5 0 13 7 17 7 4 10 4 6 -1 -4 -4 -3 -14 2 -20 8 -9 4 -12 -12 -11 -14 1 -23
-5 -23 -14 -1 -8 -7 -14 -14 -12 -7 1 -10 -2 -6 -8 11 -18 34 -11 30 9 -3 15
0 18 13 14 10 -4 12 -8 4 -11 -7 -2 -10 -8 -7 -12 7 -11 -30 -32 -38 -23 -4 3
-1 -6 6 -20 6 -14 16 -23 22 -19 5 3 4 -2 -3 -11 -8 -9 -11 -21 -7 -27 4 -6 3
-10 -2 -9 -4 1 -15 1 -23 -1 -11 -1 -9 -4 5 -10 19 -8 19 -9 1 -9 -16 -1 -17
-3 -5 -18 12 -14 12 -16 0 -8 -11 6 -13 4 -7 -10 5 -15 4 -16 -9 -5 -8 7 -12
17 -8 23 3 6 1 7 -5 3 -9 -5 -8 -12 1 -28 9 -16 9 -22 0 -25 -7 -3 -13 -9 -13
-14 0 -6 5 -7 12 -3 7 4 8 3 4 -5 -6 -9 -11 -9 -22 0 -12 10 -13 9 -8 -6 5
-12 4 -16 -4 -11 -6 3 -14 1 -18 -5 -4 -7 -3 -9 4 -5 6 3 13 2 17 -4 3 -5 2
-10 -4 -10 -6 0 -7 -8 -4 -17 5 -12 2 -15 -8 -11 -10 4 -15 -1 -16 -13 -1 -12
3 -17 9 -13 7 5 8 2 4 -5 -5 -7 -14 -10 -21 -7 -8 3 -12 -2 -10 -12 1 -9 8
-16 15 -14 6 1 9 -2 5 -8 -3 -6 -10 -8 -15 -5 -4 3 -16 2 -25 -1 -14 -6 -14
-8 2 -26 9 -11 13 -18 8 -17 -6 1 -22 -4 -37 -11 -21 -10 -25 -16 -17 -26 10
-13 26 -13 45 -2 6 4 10 -2 10 -14 -1 -19 5 -22 41 -23 23 0 39 3 37 7 -3 5
-9 6 -13 4 -3 -3 -7 4 -7 15 0 17 2 18 11 5 7 -8 23 -13 38 -12 22 3 25 1 16
-11 -7 -7 -9 -16 -5 -20 3 -3 6 -1 6 7 0 10 3 10 14 1 12 -10 13 -8 9 10 -4
16 -3 20 6 15 6 -4 19 -2 28 6 12 9 15 9 9 0 -4 -7 -2 -12 4 -12 7 0 10 -7 6
-15 -3 -8 -1 -15 4 -15 6 0 10 7 10 15 0 8 5 15 10 15 6 0 10 -6 10 -14 0 -8
5 -18 12 -22 7 -4 8 -3 4 5 -4 6 -4 21 0 33 l6 21 15 -24 c8 -13 12 -16 9 -7
-4 14 0 17 25 14 16 -2 32 1 36 7 3 6 1 7 -5 3 -7 -4 -12 -3 -12 3 0 16 22 25
30 11 5 -9 9 -8 13 4 3 8 1 17 -6 20 -7 3 2 4 18 3 21 -1 30 3 31 13 1 30 16
60 26 54 7 -4 8 -2 4 5 -4 6 -2 19 6 28 9 12 9 15 1 9 -7 -4 -13 -2 -13 3 0 6
5 11 10 11 6 0 10 5 10 11 0 5 -6 7 -12 4 -7 -4 -3 2 10 12 16 13 21 24 16 38
-5 12 -4 16 4 11 6 -3 14 -1 18 5 4 8 3 9 -4 5 -11 -6 -13 -2 -12 20 1 3 -9
13 -21 23 -17 14 -19 18 -6 18 9 0 14 -3 12 -7 -2 -4 2 -7 10 -7 8 0 13 3 10
5 -3 3 1 12 8 21 11 14 10 14 -6 2 -17 -14 -18 -13 -15 5 1 10 8 22 13 26 6 4
2 8 -8 8 -10 0 -16 4 -13 9 4 5 0 12 -6 15 -7 3 1 3 17 0 17 -3 25 -2 19 3 -6
4 -11 23 -10 41 1 32 -8 43 -17 20 -4 -10 -6 -10 -6 0 -1 7 9 17 22 22 19 8
10 15 -15 11 -5 0 -8 4 -8 10 0 7 11 9 28 5 15 -3 21 -3 14 0 -6 3 -9 11 -6
16 5 7 2 8 -6 3 -10 -6 -12 -4 -7 9 4 10 7 20 7 22 0 3 4 3 9 -1 5 -3 13 0 17
6 4 7 3 9 -3 6 -6 -4 -16 0 -23 8 -10 12 -10 18 0 30 7 8 9 15 5 15 -4 0 -2 6
4 13 8 10 7 14 -4 14 -8 0 -11 -5 -8 -10 3 -6 1 -7 -6 -3 -8 6 -9 12 -2 20 6
7 7 17 3 22 -4 4 1 2 11 -5 22 -17 22 -8 1 14 -14 13 -14 19 -4 28 10 9 11 9
5 -2 -6 -10 -4 -12 5 -6 10 6 8 12 -8 26 -18 14 -19 18 -6 23 10 4 13 2 8 -6
-4 -7 -3 -8 4 -4 7 4 12 2 12 -5 0 -7 3 -9 6 -6 4 4 1 13 -6 22 -10 12 -10 15
1 15 11 0 11 2 -1 10 -8 5 -11 10 -7 10 4 0 2 10 -4 23 -12 21 -11 21 6 7 17
-14 17 -14 5 7 -8 12 -19 19 -25 17 -5 -3 -3 1 7 8 11 10 13 19 7 30 -6 11 -5
19 2 24 7 4 9 3 5 -4 -3 -6 -2 -13 3 -17 6 -3 8 4 6 16 -3 16 -1 19 13 14 14
-5 15 -4 4 7 -10 10 -16 10 -34 -1 l-21 -13 21 29 c14 20 18 34 11 44 -11 18
-12 32 -1 25 16 -9 9 29 -7 42 -9 8 -10 11 -3 7 16 -8 11 27 -8 52 -14 17 -14
17 6 0 11 -9 27 -17 34 -17 9 0 7 5 -6 16 -15 13 -16 15 -2 10 15 -4 16 -2 6
22 -5 15 -10 42 -9 60 0 23 -3 31 -12 25 -8 -4 -7 -1 2 10 9 11 10 17 2 17
-18 0 -13 18 7 24 17 6 27 36 12 36 -11 0 -7 53 5 66 5 7 15 9 20 6 6 -3 4 1
-3 10 -9 11 -9 18 -2 21 6 3 5 4 -2 3 -7 -2 -13 -8 -13 -13 0 -6 -4 -15 -9
-20 -5 -5 -6 -3 -2 5 4 7 2 12 -5 12 -7 0 -4 8 7 18 20 18 29 76 10 65 -6 -4
-5 0 2 9 10 13 10 17 0 21 -10 4 -10 6 0 6 6 1 12 9 12 19 0 14 -2 15 -10 2
-6 -9 -10 -10 -10 -3 0 6 5 15 10 18 15 9 12 27 -2 19 -10 -6 -10 -4 0 7 13
14 17 33 5 26 -5 -3 -8 5 -8 18 0 13 3 21 6 19 4 -2 9 5 12 16 6 23 -3 26 -22
8 -11 -11 -11 -9 0 9 7 12 16 20 20 17 4 -2 10 0 13 5 4 5 1 13 -5 17 -8 5 -9
3 -4 -6 5 -9 4 -11 -4 -6 -9 6 -9 11 1 24 11 13 11 14 -1 8 -9 -6 -12 -5 -9 5
3 8 14 13 24 11 18 -2 18 -2 -1 10 -11 7 -21 23 -21 35 -1 13 3 20 7 17 5 -3
9 0 9 5 0 6 -4 11 -8 11 -11 0 -9 40 1 58 5 6 5 17 1 24 -4 6 1 17 11 25 11 7
14 13 8 13 -16 0 -24 28 -11 36 7 5 8 2 4 -7 -4 -8 -1 -6 8 4 15 19 12 47 -5
47 -12 0 -11 -17 1 -23 6 -3 5 -4 -2 -3 -7 1 -14 12 -14 24 -1 12 3 19 7 16 5
-3 6 2 3 9 -3 8 -13 17 -23 20 -10 2 -18 12 -18 21 0 11 6 15 15 11 12 -4 12
-2 4 8 -7 8 -8 18 -4 23 4 4 0 3 -8 -3 -11 -8 -20 -9 -30 -1 -12 8 -12 9 3 4
21 -7 23 17 2 34 -8 7 -12 17 -8 24 3 6 3 8 -2 4 -4 -4 -14 -3 -21 3 -8 7 -14
7 -19 -1 -5 -8 -12 -5 -22 7 -14 17 -14 17 -9 0 5 -14 2 -16 -13 -8 -10 6 -21
7 -25 3 -4 -3 -4 2 -1 13 7 20 6 20 -11 0 -14 -17 -16 -17 -11 -2 4 9 2 17 -4
17 -6 0 -8 4 -5 9 7 11 -20 8 -31 -3 -4 -4 -2 -6 6 -4 7 2 16 -4 18 -12 3 -10
2 -11 -4 -4 -4 6 -16 10 -25 8 -15 -2 -16 1 -6 19 11 22 11 22 -11 3 -13 -12
-21 -14 -21 -7 0 7 -4 10 -10 6 -5 -3 -7 -13 -4 -23 4 -9 -3 -4 -14 11 -16 23
-20 26 -26 12 -3 -9 -2 -13 4 -10 6 3 7 -1 3 -10 -4 -12 -8 -13 -13 -5 -4 7
-14 9 -21 6 -8 -4 -5 0 5 8 20 16 20 16 0 17 -10 1 -23 1 -28 0 -5 -1 -6 5 -3
14 7 17 2 20 -8 5z m19 -35 c-4 -8 -10 -15 -16 -15 -5 0 -7 -4 -3 -10 3 -5 13
-7 23 -4 14 5 14 3 -2 -6 -14 -10 -20 -10 -26 0 -4 6 -10 11 -14 11 -3 -1 -6
2 -6 7 0 4 4 7 10 7 5 0 15 6 22 13 16 16 19 15 12 -3z m306 -60 l24 -25 -27
2 c-20 2 -23 5 -15 15 7 9 7 13 -1 13 -6 0 -11 5 -11 10 0 15 4 13 30 -15z
m-64 -171 c1 -9 0 -13 -4 -10 -3 4 -7 14 -8 22 -1 9 0 13 4 10 3 -4 7 -14 8
-22z m-486 -189 c0 -2 -6 -8 -13 -14 -10 -8 -14 -7 -14 2 0 8 6 14 14 14 7 0
13 -1 13 -2z m266 -167 c4 -7 4 -10 0 -6 -10 8 -36 -14 -29 -24 2 -5 -1 -8 -6
-8 -16 0 -14 11 6 32 19 21 20 22 29 6z m328 -193 c-4 -8 -8 -15 -10 -15 -2 0
-4 7 -4 15 0 8 4 15 10 15 5 0 7 -7 4 -15z m-640 -303 c3 -5 -1 -9 -9 -9 -8 0
-12 4 -9 9 3 4 7 8 9 8 2 0 6 -4 9 -8z m626 -12 c0 -5 -5 -10 -11 -10 -5 0 -7
5 -4 10 3 6 8 10 11 10 2 0 4 -4 4 -10z m-10 -114 c0 -2 -7 -7 -16 -10 -8 -3
-12 -2 -9 4 6 10 25 14 25 6z m-6 -54 c3 -5 -1 -9 -9 -9 -8 0 -12 4 -9 9 3 4
7 8 9 8 2 0 6 -4 9 -8z m-13 -200 c-7 -2 -18 1 -23 6 -8 8 -4 9 13 5 13 -4 18
-8 10 -11z m-320 -85 c-10 -9 -11 -8 -5 6 3 10 9 15 12 12 3 -3 0 -11 -7 -18z
m12 -31 c4 -10 1 -13 -9 -9 -7 3 -14 9 -14 14 0 14 17 10 23 -5z m301 -84 c2
-4 -2 -16 -10 -27 -8 -10 -14 -14 -14 -8 0 7 5 15 11 19 8 4 7 9 -2 15 -10 6
-10 9 -2 9 6 0 14 -3 17 -8z m-324 -152 c0 -5 -2 -10 -4 -10 -3 0 -8 5 -11 10
-3 6 -1 10 4 10 6 0 11 -4 11 -10z m299 -64 c9 -11 9 -16 -1 -22 -7 -4 -10 -4
-6 1 4 4 3 14 -3 22 -6 7 -9 13 -6 13 2 0 10 -6 16 -14z m10 -100 c0 -7 -2 -6
-6 2 -2 6 -8 10 -12 8 -4 -3 -8 1 -8 9 0 11 4 12 14 4 7 -6 13 -17 12 -23z m1
-37 c0 -5 -4 -9 -8 -9 -5 0 -9 7 -9 15 0 8 4 12 9 9 4 -3 8 -9 8 -15z m-62
-164 c-3 -3 -9 2 -12 12 -6 14 -5 15 5 6 7 -7 10 -15 7 -18z m-428 -29 c0 -3
-4 -8 -10 -11 -5 -3 -10 -1 -10 4 0 6 5 11 10 11 6 0 10 -2 10 -4z m331 -19
c-10 -9 -11 -8 -5 6 3 10 9 15 12 12 3 -3 0 -11 -7 -18z m-254 -12 c4 -4 2 -5
-4 -1 -8 4 -13 2 -13 -6 0 -9 -3 -9 -10 2 -8 12 -10 12 -10 1 0 -8 -3 -12 -6
-8 -3 3 -3 10 0 15 7 12 32 10 43 -3z"/>
<path d="M2148 2263 c7 -3 16 -2 19 1 4 3 -2 6 -13 5 -11 0 -14 -3 -6 -6z"/>
<path d="M2448 2223 c7 -3 16 -2 19 1 4 3 -2 6 -13 5 -11 0 -14 -3 -6 -6z"/>
<path d="M690 2120 c0 -5 5 -10 10 -10 6 0 10 5 10 10 0 6 -4 10 -10 10 -5 0
-10 -4 -10 -10z"/>
<path d="M1455 2080 c-3 -5 -1 -10 4 -10 6 0 11 5 11 10 0 6 -2 10 -4 10 -3 0
-8 -4 -11 -10z"/>
<path d="M2478 2063 c7 -3 16 -2 19 1 4 3 -2 6 -13 5 -11 0 -14 -3 -6 -6z"/>
<path d="M1360 2029 c0 -5 5 -7 10 -4 6 3 10 8 10 11 0 2 -4 4 -10 4 -5 0 -10
-5 -10 -11z"/>
<path d="M2474 2028 c-12 -18 -12 -30 -1 -51 5 -12 4 -23 -3 -32 -8 -10 -8
-15 0 -20 6 -4 14 -4 17 -1 4 3 1 6 -7 6 -10 0 -10 3 0 15 7 9 9 22 4 32 -11
26 -11 37 0 45 6 4 8 10 4 13 -3 4 -10 0 -14 -7z"/>
<path d="M1890 1919 c0 -5 5 -7 10 -4 6 3 10 8 10 11 0 2 -4 4 -10 4 -5 0 -10
-5 -10 -11z"/>
<path d="M640 1886 c0 -2 7 -7 16 -10 8 -3 12 -2 9 4 -6 10 -25 14 -25 6z"/>
<path d="M670 1830 c-6 -11 -8 -20 -6 -20 3 0 10 9 16 20 6 11 8 20 6 20 -3 0
-10 -9 -16 -20z"/>
<path d="M1254 1759 c0 -9 5 -15 11 -12 7 2 12 10 12 17 0 7 -5 13 -12 13 -6
0 -11 -8 -11 -18z"/>
<path d="M2465 1769 c-11 -16 -1 -19 13 -3 7 8 8 14 3 14 -5 0 -13 -5 -16 -11z"/>
<path d="M1306 1684 c-5 -14 -4 -15 9 -4 17 14 19 20 6 20 -5 0 -12 -7 -15
-16z"/>
<path d="M705 1641 c-6 -11 13 -26 22 -17 4 3 1 6 -6 6 -7 0 -9 5 -6 10 3 6 4
10 1 10 -3 0 -7 -4 -11 -9z"/>
<path d="M170 1556 c7 -7 13 -7 20 0 6 6 3 10 -10 10 -13 0 -16 -4 -10 -10z"/>
<path d="M2444 1489 c-3 -6 -2 -15 3 -20 5 -5 9 -1 9 11 0 23 -2 24 -12 9z"/>
<path d="M2430 1402 c0 -5 7 -9 15 -9 8 0 12 4 9 9 -3 4 -9 8 -15 8 -5 0 -9
-4 -9 -8z"/>
<path d="M2435 1370 c3 -5 8 -10 11 -10 2 0 4 5 4 10 0 6 -5 10 -11 10 -5 0
-7 -4 -4 -10z"/>
<path d="M2436 1333 c-6 -14 -5 -15 5 -6 7 7 10 15 7 18 -3 3 -9 -2 -12 -12z"/>
<path d="M150 1236 c7 -7 13 -7 20 0 6 6 3 10 -10 10 -13 0 -16 -4 -10 -10z"/>
<path d="M148 1213 c7 -3 16 -2 19 1 4 3 -2 6 -13 5 -11 0 -14 -3 -6 -6z"/>
<path d="M2426 1205 c4 -8 11 -15 16 -15 6 0 5 6 -2 15 -7 8 -14 15 -16 15 -2
0 -1 -7 2 -15z"/>
<path d="M148 1183 c7 -3 16 -2 19 1 4 3 -2 6 -13 5 -11 0 -14 -3 -6 -6z"/>
<path d="M1126 1151 c8 -8 43 -8 38 0 -2 4 -13 7 -24 6 -10 -1 -17 -3 -14 -6z"/>
<path d="M1320 1001 c0 -6 4 -13 10 -16 6 -3 7 1 4 9 -7 18 -14 21 -14 7z"/>
<path d="M2010 940 c0 -5 5 -10 11 -10 5 0 7 5 4 10 -3 6 -8 10 -11 10 -2 0
-4 -4 -4 -10z"/>
<path d="M1455 801 c-6 -11 13 -26 22 -17 4 3 1 6 -6 6 -7 0 -9 5 -6 10 3 6 4
10 1 10 -3 0 -7 -4 -11 -9z"/>
<path d="M628 763 c7 -3 16 -2 19 1 4 3 -2 6 -13 5 -11 0 -14 -3 -6 -6z"/>
<path d="M463 735 c4 -5 0 -16 -9 -26 -12 -14 -13 -18 -2 -25 7 -4 10 -3 5 1
-4 5 0 16 9 26 12 14 13 18 2 25 -7 4 -10 3 -5 -1z"/>
<path d="M115 595 c1 -31 6 -60 12 -66 6 -6 10 -5 10 6 0 8 -4 15 -9 15 -4 0
-8 5 -8 11 0 5 4 8 8 5 5 -3 9 1 9 9 0 8 -4 15 -7 15 -4 0 -6 14 -5 30 1 17
-1 30 -5 30 -4 0 -6 -25 -5 -55z"/>
<path d="M810 620 c0 -5 5 -10 11 -10 5 0 7 5 4 10 -3 6 -8 10 -11 10 -2 0 -4
-4 -4 -10z"/>
<path d="M2034 532 c3 -6 -2 -15 -11 -21 -10 -6 -13 -11 -7 -11 20 0 37 27 23
36 -7 4 -9 3 -5 -4z"/>
<path d="M107 469 c7 -7 15 -10 18 -7 3 3 -2 9 -12 12 -14 6 -15 5 -6 -5z"/>
<path d="M267 449 c7 -7 15 -10 18 -7 3 3 -2 9 -12 12 -14 6 -15 5 -6 -5z"/>
<path d="M105 440 c3 -5 8 -10 11 -10 2 0 4 5 4 10 0 6 -5 10 -11 10 -5 0 -7
-4 -4 -10z"/>
<path d="M1976 422 c-3 -5 1 -9 9 -9 8 0 12 4 9 9 -3 4 -7 8 -9 8 -2 0 -6 -4
-9 -8z"/>
<path d="M150 329 c0 -5 5 -7 10 -4 6 3 10 8 10 11 0 2 -4 4 -10 4 -5 0 -10
-5 -10 -11z"/>
<path d="M465 220 c-3 -5 -1 -10 4 -10 6 0 11 5 11 10 0 6 -2 10 -4 10 -3 0
-8 -4 -11 -10z"/>
<path d="M1855 200 c-2 -3 5 -6 15 -7 11 -1 22 2 25 7 3 5 -4 8 -16 7 -11 -1
-22 -4 -24 -7z"/>
<path d="M2091 114 c0 -11 3 -14 6 -6 3 7 2 16 -1 19 -3 4 -6 -2 -5 -13z"/>
</g>
</svg>
